<svg id="visual" viewBox="0 0 900 600" width="900" height="600" xmlns="http://www.w3.org/2000/svg" xmlns:xlink="http://www.w3.org/1999/xlink" version="1.1"><rect x="0" y="0" width="900" height="600" fill="#001220"></rect><defs><linearGradient id="grad1_0" x1="33.3%" y1="0%" x2="100%" y2="100%"><stop offset="20%" stop-color="#715df2" stop-opacity="1"></stop><stop offset="80%" stop-color="#715df2" stop-opacity="1"></stop></linearGradient></defs><defs><linearGradient id="grad1_1" x1="33.3%" y1="0%" x2="100%" y2="100%"><stop offset="20%" stop-color="#715df2" stop-opacity="1"></stop><stop offset="80%" stop-color="#004cae" stop-opacity="1"></stop></linearGradient></defs><defs><linearGradient id="grad1_2" x1="33.3%" y1="0%" x2="100%" y2="100%"><stop offset="20%" stop-color="#003165" stop-opacity="1"></stop><stop offset="80%" stop-color="#004cae" stop-opacity="1"></stop></linearGradient></defs><defs><linearGradient id="grad1_3" x1="33.3%" y1="0%" x2="100%" y2="100%"><stop offset="20%" stop-color="#003165" stop-opacity="1"></stop><stop offset="80%" stop-color="#001220" stop-opacity="1"></stop></linearGradient></defs><defs><linearGradient id="grad2_0" x1="0%" y1="0%" x2="66.7%" y2="100%"><stop offset="20%" stop-color="#715df2" stop-opacity="1"></stop><stop offset="80%" stop-color="#715df2" stop-opacity="1"></stop></linearGradient></defs><defs><linearGradient id="grad2_1" x1="0%" y1="0%" x2="66.7%" y2="100%"><stop offset="20%" stop-color="#004cae" stop-opacity="1"></stop><stop offset="80%" stop-color="#715df2" stop-opacity="1"></stop></linearGradient></defs><defs><linearGradient id="grad2_2" x1="0%" y1="0%" x2="66.7%" y2="100%"><stop offset="20%" stop-color="#004cae" stop-opacity="1"></stop><stop offset="80%" stop-color="#003165" stop-opacity="1"></stop></linearGradient></defs><defs><linearGradient id="grad2_3" x1="0%" y1="0%" x2="66.7%" y2="100%"><stop offset="20%" stop-color="#001220" stop-opacity="1"></stop><stop offset="80%" stop-color="#003165" stop-opacity="1"></stop></linearGradient></defs><g transform="translate(900, 0)"><path d="M0 540.8C-56.6 524.9 -113.2 508.9 -153.3 471.7C-193.3 434.6 -216.9 376.2 -246.3 339C-275.7 301.8 -310.9 285.8 -362.4 263.3C-414 240.9 -481.9 212.1 -514.4 167.1C-546.8 122.2 -543.8 61.1 -540.8 0L0 0Z" fill="#002241"></path><path d="M0 405.6C-42.4 393.6 -84.9 381.7 -115 353.8C-145 325.9 -162.7 282.1 -184.7 254.2C-206.7 226.3 -233.2 214.3 -271.8 197.5C-310.5 180.7 -361.4 159.1 -385.8 125.3C-410.1 91.6 -407.9 45.8 -405.6 0L0 0Z" fill="#003f8a"></path><path d="M0 270.4C-28.3 262.4 -56.6 254.4 -76.6 235.9C-96.7 217.3 -108.4 188.1 -123.1 169.5C-137.8 150.9 -155.4 142.9 -181.2 131.7C-207 120.5 -241 106 -257.2 83.6C-273.4 61.1 -271.9 30.5 -270.4 0L0 0Z" fill="#4056d1"></path><path d="M0 135.2C-14.1 131.2 -28.3 127.2 -38.3 117.9C-48.3 108.6 -54.2 94 -61.6 84.7C-68.9 75.4 -77.7 71.4 -90.6 65.8C-103.5 60.2 -120.5 53 -128.6 41.8C-136.7 30.5 -136 15.3 -135.2 0L0 0Z" fill="#715df2"></path></g><g transform="translate(0, 600)"><path d="M0 -540.8C60.7 -533 121.3 -525.2 157 -483.1C192.6 -441 203.2 -364.6 240.4 -330.9C277.6 -297.2 341.3 -306.2 394.8 -286.8C448.3 -267.5 491.7 -219.7 514.4 -167.1C537 -114.6 538.9 -57.3 540.8 0L0 0Z" fill="#002241"></path><path d="M0 -405.6C45.5 -399.8 91 -393.9 117.7 -362.4C144.5 -330.8 152.4 -273.4 180.3 -248.2C208.2 -222.9 255.9 -229.7 296.1 -215.1C336.3 -200.6 368.8 -164.8 385.8 -125.3C402.8 -85.9 404.2 -43 405.6 0L0 0Z" fill="#003f8a"></path><path d="M0 -270.4C30.3 -266.5 60.7 -262.6 78.5 -241.6C96.3 -220.5 101.6 -182.3 120.2 -165.4C138.8 -148.6 170.6 -153.1 197.4 -143.4C224.2 -133.7 245.9 -109.8 257.2 -83.6C268.5 -57.3 269.5 -28.6 270.4 0L0 0Z" fill="#4056d1"></path><path d="M0 -135.2C15.2 -133.3 30.3 -131.3 39.2 -120.8C48.2 -110.3 50.8 -91.1 60.1 -82.7C69.4 -74.3 85.3 -76.6 98.7 -71.7C112.1 -66.9 122.9 -54.9 128.6 -41.8C134.3 -28.6 134.7 -14.3 135.2 0L0 0Z" fill="#715df2"></path></g></svg>